<svg width="1200" height="630" viewBox="0 0 1200 630" fill="none" xmlns="http://www.w3.org/2000/svg">
  <rect width="1200" height="630" fill="#FBFAFD"/>
  <circle cx="1030" cy="122" r="180" fill="#EFE6FF"/>
  <circle cx="163" cy="562" r="220" fill="#FFF2D8"/>
  <rect x="76" y="74" width="180" height="180" rx="54" fill="#7B3FE4"/>
  <path d="M112 164C112 130.863 138.863 104 172 104H213V130H172C153.222 130 138 145.222 138 164C138 182.778 153.222 198 172 198H213V224H172C138.863 224 112 197.137 112 164Z" fill="white"/>
  <circle cx="213" cy="164" r="24" fill="#B087F9"/>
  <text x="76" y="340" fill="#18122A" font-family="Arial, sans-serif" font-size="72" font-weight="700">noodl3</text>
  <text x="76" y="406" fill="#6D6783" font-family="Arial, sans-serif" font-size="30">MiniPay-native loyalty for local food and drink merchants on Celo.</text>
  <rect x="76" y="470" width="208" height="54" rx="27" fill="#F3EBFF"/>
  <text x="108" y="505" fill="#7B3FE4" font-family="Arial, sans-serif" font-size="24" font-weight="700">Pay with stablecoins</text>
  <rect x="304" y="470" width="224" height="54" rx="27" fill="#F3EBFF"/>
  <text x="336" y="505" fill="#7B3FE4" font-family="Arial, sans-serif" font-size="24" font-weight="700">Collect Stamps</text>
  <rect x="548" y="470" width="302" height="54" rx="27" fill="#F3EBFF"/>
  <text x="580" y="505" fill="#7B3FE4" font-family="Arial, sans-serif" font-size="24" font-weight="700">Redeem by verifier QR</text>
</svg>
